<?xml version="1.0" encoding="UTF-8" standalone="no"?>
<!-- Created with Inkscape (http://www.inkscape.org/) -->

<svg
   width="47"
   height="64.031502"
   viewBox="0 0 12.435416 16.941668"
   version="1.1"
   id="svg1"
   xml:space="preserve"
   xmlns:xlink="http://www.w3.org/1999/xlink"
   xmlns="http://www.w3.org/2000/svg"
   xmlns:svg="http://www.w3.org/2000/svg"><defs
     id="defs1"><linearGradient
       id="linearGradient33"><stop
         style="stop-color:#ff0000;stop-opacity:1;"
         offset="0"
         id="stop34" /><stop
         style="stop-color:#00ff00;stop-opacity:1;"
         offset="0.5"
         id="stop36" /><stop
         style="stop-color:#0000ff;stop-opacity:1;"
         offset="1"
         id="stop35" /></linearGradient><linearGradient
       id="linearGradient30"><stop
         style="stop-color:#ff0000;stop-opacity:1;"
         offset="0"
         id="stop31" /><stop
         style="stop-color:#00ff00;stop-opacity:1;"
         offset="0.5"
         id="stop33" /><stop
         style="stop-color:#0000ff;stop-opacity:1;"
         offset="1"
         id="stop32" /></linearGradient><linearGradient
       id="linearGradient28"><stop
         style="stop-color:#ff2020;stop-opacity:1;"
         offset="0"
         id="stop28" /><stop
         style="stop-color:#00ff00;stop-opacity:1;"
         offset="0.5"
         id="stop30" /><stop
         style="stop-color:#0000ff;stop-opacity:1;"
         offset="1"
         id="stop29" /></linearGradient><linearGradient
       xlink:href="#linearGradient28"
       id="linearGradient29"
       x1="4.8559408"
       y1="7.9647942"
       x2="12.60656"
       y2="15.715413"
       gradientUnits="userSpaceOnUse" /><linearGradient
       xlink:href="#linearGradient30"
       id="linearGradient32"
       x1="4.3346663"
       y1="2.019562"
       x2="13.127833"
       y2="10.81273"
       gradientUnits="userSpaceOnUse" /><linearGradient
       xlink:href="#linearGradient33"
       id="linearGradient35"
       x1="4.7128887"
       y1="-0.97851342"
       x2="12.749611"
       y2="7.0582089"
       gradientUnits="userSpaceOnUse" /></defs><g
     id="layer1"
     transform="translate(-2.5135418)"><path
       id="path6"
       style="fill:none;stroke:url(#linearGradient35);stroke-width:0.79375;stroke-opacity:1"
       d="m 12.468978,1.9450926 c 0.956568,0.956568 1.548218,2.2780545 1.548218,3.7377282 H 8.7312498 3.4453039 c 0,-1.4596737 0.5916496,-2.7811601 1.5482177,-3.7377282 M 11.686673,1.2996314 C 10.573661,0.54769793 9.4520009,0.3968749 8.7312498,0.3968749 c -0.7199453,0 -1.8419189,0.15048821 -2.9554226,0.9027565 L 6.3049943,4.233333 h 4.8525107 z" /><rect
       style="fill:none;fill-opacity:1;stroke:url(#linearGradient32);stroke-width:0.79375;stroke-dasharray:none;stroke-opacity:1"
       id="rect9"
       width="11.641666"
       height="1.4552079"
       x="2.9104166"
       y="5.6885419" /><path
       id="rect10"
       style="fill:none;stroke:url(#linearGradient29);stroke-width:0.810419"
       d="M 3.7041667,7.1437497 H 13.758333 L 12.7,16.536458 H 4.7624999 Z" /><g
       id="g21"
       transform="matrix(0.54680347,0,0,0.54680347,24.268073,18.04046)"><g
         id="path10"
         style="stroke-width:0.79375;stroke-dasharray:none"><path
           d="m -23.09368,-12.94908 -2.160075,1.247986 1.543058,2.6737382 c 0.454659,-0.1312439 0.939489,-0.2630587 1.333769,-0.4588867 0.478792,-0.2378028 0.785809,-0.5181045 0.876949,-0.8867675 0,-1.5e-4 0.0041,-0.01179 0.0041,-0.01189 0.03707,-0.162768 -0.0069,-0.425918 -0.150895,-0.732255 -0.145151,-0.308848 -0.375422,-0.646808 -0.620634,-0.952913 -0.39642,-0.49486 -0.678949,-0.741713 -0.826306,-0.879016 z"
           style="fill:#0000ff;fill-opacity:1;stroke-width:0.79375;stroke-dasharray:none"
           id="path19" /><path
           d="m -21.155814,-10.111011 c -0.366752,0.9361873 -1.743017,1.2875498 -2.739368,1.5735478 -0.725879,0.2083605 -2.265495,0 -2.265495,0 V -9.693465 l -2.312003,2.7703735 2.312003,2.760555 v -1.1461833 c 0,0 1.555207,0.3644365 2.18643,0 1.451658,-0.8381151 2.563288,-4.0198823 2.818433,-4.8022912 z"
           style="fill:#0000ff;fill-opacity:1;stroke-width:0.79375;stroke-dasharray:none"
           id="path20" /></g><g
         id="path10-1-4"
         transform="rotate(-120,-28.394087,-11.251485)"
         style="stroke-width:0.79375;stroke-dasharray:none"><path
           d="m -23.09368,-12.94908 -2.160075,1.247986 1.543058,2.6737382 c 0.454659,-0.1312439 0.939489,-0.2630587 1.333769,-0.4588867 0.478792,-0.2378028 0.785809,-0.5181045 0.876949,-0.8867675 0,-1.5e-4 0.0041,-0.01179 0.0041,-0.01189 0.03707,-0.162768 -0.0069,-0.425918 -0.150895,-0.732255 -0.145151,-0.308848 -0.375422,-0.646808 -0.620634,-0.952913 -0.39642,-0.49486 -0.678949,-0.741713 -0.826306,-0.879016 z"
           style="fill:#00ff00;fill-opacity:1;stroke-width:0.79375;stroke-dasharray:none"
           id="path19-1-2" /><path
           d="m -21.155814,-10.111011 c -0.366752,0.9361873 -1.743017,1.2875498 -2.739368,1.5735478 -0.725879,0.2083605 -2.265495,0 -2.265495,0 V -9.693465 l -2.312003,2.7703735 2.312003,2.760555 v -1.1461833 c 0,0 1.555207,0.3644365 2.18643,0 1.451658,-0.8381151 2.563288,-4.0198823 2.818433,-4.8022912 z"
           style="fill:#00ff00;fill-opacity:1;stroke-width:0.79375;stroke-dasharray:none"
           id="path20-5-3" /></g><g
         id="path10-1"
         transform="rotate(120,-28.394087,-11.160733)"
         style="stroke-width:0.79375;stroke-dasharray:none"><path
           d="m -23.09368,-12.94908 -2.160075,1.247986 1.543058,2.6737382 c 0.454659,-0.1312439 0.939489,-0.2630587 1.333769,-0.4588867 0.478792,-0.2378028 0.785809,-0.5181045 0.876949,-0.8867675 0,-1.5e-4 0.0041,-0.01179 0.0041,-0.01189 0.03707,-0.162768 -0.0069,-0.425918 -0.150895,-0.732255 -0.145151,-0.308848 -0.375422,-0.646808 -0.620634,-0.952913 -0.39642,-0.49486 -0.678949,-0.741713 -0.826306,-0.879016 z"
           style="fill:#ff0000;fill-opacity:1;stroke-width:0.79375;stroke-dasharray:none"
           id="path19-1" /><path
           d="m -21.155814,-10.111011 c -0.366752,0.9361873 -1.743017,1.2875498 -2.739368,1.5735478 -0.725879,0.2083605 -2.265495,0 -2.265495,0 V -9.693465 l -2.312003,2.7703735 2.312003,2.760555 v -1.1461833 c 0,0 1.555207,0.3644365 2.18643,0 1.451658,-0.8381151 2.563288,-4.0198823 2.818433,-4.8022912 z"
           style="fill:#ff0000;fill-opacity:1;stroke-width:0.793766;stroke-dasharray:none"
           id="path20-5" /></g></g></g></svg>
